<svg width="24" height="24" viewBox="0 0 24 24" fill="none" xmlns="http://www.w3.org/2000/svg">
<path fill-rule="evenodd" clip-rule="evenodd" d="M7.24991 6.63099V5.46099C7.25005 5.04201 7.4005 4.63699 7.67392 4.31953C7.94734 4.00206 8.32558 3.79323 8.73991 3.73099L9.95991 3.54799C11.3123 3.34509 12.6875 3.34509 14.0399 3.54799L15.2599 3.73099C15.6742 3.79323 16.0525 4.00206 16.3259 4.31953C16.5993 4.63699 16.7498 5.04201 16.7499 5.46099V6.63099L18.4639 6.76899C19.1016 6.8205 19.7036 7.08435 20.1737 7.51835C20.6438 7.95234 20.9547 8.53142 21.0569 9.16299C21.5221 12.0356 21.5221 14.9644 21.0569 17.837C20.9547 18.4686 20.6438 19.0476 20.1737 19.4816C19.7036 19.9156 19.1016 20.1795 18.4639 20.231L16.5919 20.381C13.5355 20.6277 10.4643 20.6277 7.40791 20.381L5.53591 20.231C4.89821 20.1795 4.29619 19.9156 3.82612 19.4816C3.35605 19.0476 3.04507 18.4686 2.94291 17.837C2.47769 14.9644 2.47769 12.0356 2.94291 9.16299C3.04528 8.5316 3.35634 7.95275 3.8264 7.51896C4.29645 7.08516 4.89835 6.82145 5.53591 6.76999L7.24991 6.63099ZM10.1829 5.03099C11.3875 4.85031 12.6123 4.85031 13.8169 5.03099L15.0369 5.21399C15.0961 5.22284 15.1501 5.25264 15.1892 5.29797C15.2283 5.34329 15.2498 5.40114 15.2499 5.46099V6.52599C13.085 6.40252 10.9148 6.40252 8.74991 6.52599V5.45999C8.74997 5.40014 8.77149 5.34229 8.81058 5.29697C8.84967 5.25164 8.90372 5.22184 8.96291 5.21299L10.1829 5.03099ZM7.52891 8.11299C10.5049 7.87299 13.4949 7.87299 16.4709 8.11299L18.3429 8.26499C18.6463 8.28926 18.9327 8.41457 19.1564 8.62089C19.3801 8.8272 19.5282 9.10258 19.5769 9.40299C19.6389 9.78799 19.6919 10.173 19.7369 10.561C17.3299 11.746 14.6828 12.3623 11.9999 12.3623C9.317 12.3623 6.66993 11.746 4.26291 10.561C4.30691 10.174 4.36091 9.78799 4.42291 9.40299C4.47161 9.10258 4.61967 8.8272 4.84338 8.62089C5.0671 8.41457 5.35355 8.28926 5.65691 8.26499L7.52891 8.11299ZM4.12891 12.157C6.60076 13.2808 9.28459 13.8622 11.9999 13.8622C14.7152 13.8622 17.3991 13.2808 19.8709 12.157C19.9665 13.9756 19.8679 15.7992 19.5769 17.597C19.5284 17.8976 19.3804 18.1732 19.1567 18.3797C18.933 18.5862 18.6464 18.7117 18.3429 18.736L16.4709 18.886C13.4949 19.126 10.5049 19.126 7.52891 18.886L5.65691 18.736C5.35341 18.7117 5.06685 18.5862 4.84311 18.3797C4.61938 18.1732 4.47141 17.8976 4.42291 17.597C4.13191 15.797 4.03291 13.973 4.12891 12.157Z" fill="#FFFAFA"/>
</svg>
