<svg width="12" height="12" viewBox="0 0 12 12" fill="none" xmlns="http://www.w3.org/2000/svg">
<path d="M1.22711 3.96955C1.36775 3.82895 1.55848 3.74997 1.75735 3.74997C1.95622 3.74997 2.14695 3.82895 2.2876 3.96955L6.00007 7.68203L9.71255 3.96955C9.854 3.83294 10.0435 3.75734 10.2401 3.75905C10.4367 3.76076 10.6249 3.83963 10.7639 3.97869C10.903 4.11774 10.9818 4.30585 10.9835 4.5025C10.9853 4.69915 10.9097 4.8886 10.773 5.03005L6.53032 9.27277C6.38968 9.41337 6.19895 9.49236 6.00007 9.49236C5.8012 9.49236 5.61047 9.41337 5.46983 9.27277L1.22711 5.03005C1.0865 4.8894 1.00752 4.69867 1.00752 4.4998C1.00752 4.30093 1.0865 4.1102 1.22711 3.96955Z" fill="#FAFAFA"/>
</svg>
