<svg width="14" height="14" viewBox="0 0 14 14" fill="none" xmlns="http://www.w3.org/2000/svg">
<path d="M6.993 0C3.129 0 0 3.136 0 7C0 10.864 3.129 14 6.993 14C10.864 14 14 10.864 14 7C14 3.136 10.864 0 6.993 0ZM4.55 4.2C5.131 4.2 5.6 4.669 5.6 5.25C5.6 5.831 5.131 6.3 4.55 6.3C3.969 6.3 3.5 5.831 3.5 5.25C3.5 4.669 3.969 4.2 4.55 4.2ZM7 11.2C5.404 11.2 4.046 10.038 3.5 8.4H10.5C9.954 10.038 8.596 11.2 7 11.2ZM9.45 6.3C8.869 6.3 8.4 5.831 8.4 5.25C8.4 4.669 8.869 4.2 9.45 4.2C10.031 4.2 10.5 4.669 10.5 5.25C10.5 5.831 10.031 6.3 9.45 6.3Z" fill="#F7941E"/>
</svg>
