<svg width="15" height="15" viewBox="0 0 15 15" fill="none" xmlns="http://www.w3.org/2000/svg">
<path d="M12.5 7.50003C12.5 8.82611 11.9732 10.0979 11.0355 11.0356C10.0979 11.9732 8.82608 12.5 7.5 12.5C6.17392 12.5 4.90215 11.9732 3.96447 11.0356C3.02678 10.0979 2.5 8.82611 2.5 7.50003C2.5 6.17395 3.02678 4.90218 3.96447 3.96449C4.90215 3.02681 6.17392 2.50003 7.5 2.50003C7.975 2.50003 8.4375 2.56878 8.875 2.69378L9.85625 1.71253C9.10894 1.40476 8.3082 1.24758 7.5 1.25003C6.67924 1.25003 5.86651 1.41169 5.10823 1.72578C4.34994 2.03987 3.66095 2.50024 3.08058 3.08061C1.90848 4.25271 1.25 5.84242 1.25 7.50003C1.25 9.15763 1.90848 10.7473 3.08058 11.9194C3.66095 12.4998 4.34994 12.9602 5.10823 13.2743C5.86651 13.5884 6.67924 13.75 7.5 13.75C9.1576 13.75 10.7473 13.0915 11.9194 11.9194C13.0915 10.7473 13.75 9.15763 13.75 7.50003M4.94375 6.30003L4.0625 7.18753L6.875 10L13.125 3.75003L12.2437 2.86253L6.875 8.23128L4.94375 6.30003Z" fill="#666666"/>
</svg>
