<svg width="35" height="35" viewBox="0 0 35 35" fill="none" xmlns="http://www.w3.org/2000/svg">
<path fill-rule="evenodd" clip-rule="evenodd" d="M22.4848 8.22937C22.2837 7.90801 21.9873 7.65735 21.6371 7.51228C21.2868 7.36721 20.9001 7.33495 20.5306 7.41999L17.9085 8.02229C17.6398 8.08405 17.3606 8.08405 17.0919 8.02229L14.4698 7.41999C14.1003 7.33495 13.7136 7.36721 13.3633 7.51228C13.013 7.65735 12.7167 7.90801 12.5156 8.22937L11.0864 10.5102C10.9406 10.7435 10.7437 10.9404 10.5104 11.0877L8.22956 12.5169C7.90876 12.7178 7.65846 13.0136 7.51343 13.3633C7.36839 13.713 7.3358 14.0991 7.42019 14.4681L8.02248 17.0931C8.08402 17.3614 8.08402 17.6401 8.02248 17.9083L7.42019 20.5319C7.33547 20.9011 7.3679 21.2876 7.51295 21.6375C7.658 21.9875 7.90848 22.2835 8.22956 22.4846L10.5104 23.9137C10.7437 24.0596 10.9406 24.2565 11.0879 24.4898L12.5171 26.7706C12.9283 27.4283 13.7129 27.7535 14.4698 27.58L17.0919 26.9777C17.3606 26.9159 17.6398 26.9159 17.9085 26.9777L20.5321 27.58C20.9013 27.6647 21.2878 27.6323 21.6377 27.4872C21.9877 27.3422 22.2837 27.0917 22.4848 26.7706L23.9139 24.4898C24.0598 24.2565 24.2566 24.0596 24.49 23.9137L26.7723 22.4846C27.0934 22.2833 27.3437 21.9869 27.4885 21.6366C27.6333 21.2864 27.6654 20.8997 27.5802 20.5304L26.9794 17.9083C26.9176 17.6396 26.9176 17.3604 26.9794 17.0917L27.5816 14.4681C27.6665 14.099 27.6343 13.7127 27.4895 13.3627C27.3447 13.0128 27.0946 12.7166 26.7737 12.5154L24.4914 11.0862C24.2584 10.9401 24.0615 10.7432 23.9154 10.5102L22.4848 8.22937ZM21.7512 14.2479C21.8414 14.082 21.8638 13.8877 21.8136 13.7057C21.7634 13.5237 21.6445 13.3682 21.4821 13.2721C21.3196 13.1759 21.1261 13.1465 20.9424 13.1901C20.7587 13.2336 20.5991 13.3467 20.4971 13.5056L16.6835 19.9602L14.3808 17.7552C14.3125 17.6851 14.2308 17.6294 14.1405 17.5915C14.0502 17.5537 13.9532 17.5344 13.8553 17.5348C13.7574 17.5352 13.6605 17.5554 13.5706 17.594C13.4806 17.6327 13.3994 17.689 13.3317 17.7598C13.264 17.8305 13.2112 17.9142 13.1765 18.0057C13.1419 18.0973 13.126 18.1949 13.1298 18.2927C13.1337 18.3906 13.1572 18.4866 13.199 18.5752C13.2408 18.6637 13.3 18.7429 13.3731 18.8081L16.3394 21.6504C16.4187 21.7263 16.5143 21.7833 16.6188 21.8171C16.7233 21.851 16.8341 21.8607 16.9429 21.8457C17.0517 21.8307 17.1557 21.7913 17.2472 21.7305C17.3386 21.6696 17.4151 21.5889 17.471 21.4944L21.7512 14.2479Z" fill="#F7941E"/>
</svg>
