<svg width="41" height="41" viewBox="0 0 41 41" fill="none" xmlns="http://www.w3.org/2000/svg">
<path d="M14.35 7.84633C14.6644 7.28043 15.1244 6.8089 15.6823 6.48059C16.2403 6.15229 16.8759 5.97915 17.5232 5.97913H23.4768C24.1241 5.97915 24.7597 6.15229 25.3177 6.48059C25.8756 6.8089 26.3356 7.28043 26.65 7.84633L27.7485 9.82288H30.9635C32.2661 9.82288 33.5154 10.3403 34.4365 11.2614C35.3575 12.1825 35.875 13.4317 35.875 14.7343V20.5375C34.0905 19.3944 32.0151 18.7884 29.8958 18.7916C28.8871 18.7916 27.909 18.9266 26.9797 19.1786C26.6003 18.0498 25.9324 17.0397 25.0423 16.2486C24.1523 15.4574 23.0709 14.9126 21.9054 14.6681C20.7399 14.4236 19.5307 14.488 18.3978 14.8548C17.2648 15.2216 16.2473 15.8781 15.4463 16.7593C14.6452 17.6405 14.0883 18.7157 13.8309 19.8784C13.5734 21.0411 13.6242 22.2509 13.9783 23.3879C14.3324 24.5249 14.9775 25.5496 15.8497 26.3605C16.7219 27.1713 17.7908 27.7402 18.9505 28.0106C18.5965 30.0868 18.8364 32.2208 19.6424 34.1666H10.0365C8.73386 34.1666 7.48461 33.6492 6.56353 32.7281C5.64246 31.807 5.125 30.5578 5.125 29.2552V14.7343C5.125 13.4317 5.64246 12.1825 6.56353 11.2614C7.48461 10.3403 8.73386 9.82288 10.0365 9.82288H13.2515L14.35 7.84633ZM20.5 16.6562C19.3388 16.6546 18.2181 17.0831 17.3542 17.859C16.4903 18.635 15.9444 19.7034 15.8218 20.8581C15.6992 22.0129 16.0086 23.1721 16.6903 24.1122C17.372 25.0522 18.3778 25.7065 19.5134 25.9487C20.5138 23.3278 22.466 21.1808 24.9801 19.9362C24.6784 18.9846 24.0816 18.1537 23.2761 17.564C22.4706 16.9743 21.4983 16.6563 20.5 16.6562ZM29.8958 39.2916C35.0849 39.2916 39.2917 35.0849 39.2917 29.8958C39.2917 24.7067 35.0849 20.5 29.8958 20.5C24.7068 20.5 20.5 24.7067 20.5 29.8958C20.5 35.0849 24.7068 39.2916 29.8958 39.2916ZM29.8958 23.9166C30.1224 23.9166 30.3396 24.0066 30.4998 24.1668C30.66 24.327 30.75 24.5443 30.75 24.7708V29.0416H35.0208C35.2474 29.0416 35.4646 29.1316 35.6248 29.2918C35.785 29.452 35.875 29.6693 35.875 29.8958C35.875 30.1223 35.785 30.3396 35.6248 30.4998C35.4646 30.66 35.2474 30.75 35.0208 30.75H30.75V35.0208C30.75 35.2473 30.66 35.4646 30.4998 35.6248C30.3396 35.785 30.1224 35.875 29.8958 35.875C29.6693 35.875 29.452 35.785 29.2918 35.6248C29.1317 35.4646 29.0417 35.2473 29.0417 35.0208V30.75H24.7708C24.5443 30.75 24.327 30.66 24.1668 30.4998C24.0067 30.3396 23.9167 30.1223 23.9167 29.8958C23.9167 29.6693 24.0067 29.452 24.1668 29.2918C24.327 29.1316 24.5443 29.0416 24.7708 29.0416H29.0417V24.7708C29.0417 24.5443 29.1317 24.327 29.2918 24.1668C29.452 24.0066 29.6693 23.9166 29.8958 23.9166Z" fill="#FFFAFA"/>
</svg>
