<svg width="19" height="19" viewBox="0 0 19 19" fill="none" xmlns="http://www.w3.org/2000/svg">
<path d="M11.5298 4.24926C12.3247 4.40406 13.0553 4.79209 13.628 5.36369C14.2006 5.93529 14.5894 6.66445 14.7445 7.45786M11.5298 1.00006C13.1813 1.18318 14.7214 1.92135 15.8971 3.09337C17.0729 4.26538 17.8144 5.80158 17.9999 7.44973M17.1861 13.9319V16.3688C17.187 16.595 17.1406 16.819 17.0498 17.0262C16.959 17.2335 16.8258 17.4196 16.6588 17.5725C16.4917 17.7255 16.2946 17.8419 16.0798 17.9144C15.8651 17.9869 15.6376 18.0138 15.4119 17.9934C12.9075 17.7218 10.5019 16.8677 8.38829 15.4996C6.42187 14.2525 4.75469 12.5885 3.50514 10.6258C2.12971 8.5067 1.27375 6.094 1.0066 3.58318C0.986265 3.35855 1.01301 3.13216 1.08514 2.91841C1.15727 2.70466 1.2732 2.50825 1.42555 2.34167C1.5779 2.1751 1.76333 2.042 1.97004 1.95087C2.17675 1.85974 2.4002 1.81257 2.62618 1.81236H5.06775C5.46272 1.80848 5.84563 1.94808 6.1451 2.20513C6.44458 2.46219 6.64019 2.81916 6.69546 3.20952C6.79852 3.98938 6.98963 4.75511 7.26517 5.49209C7.37466 5.78283 7.39836 6.09881 7.33345 6.40258C7.26854 6.70635 7.11775 6.98519 6.89893 7.20604L5.86533 8.23767C7.0239 10.2713 8.71095 11.9551 10.7485 13.1115L11.7821 12.0799C12.0034 11.8615 12.2827 11.7109 12.5871 11.6462C12.8914 11.5814 13.208 11.605 13.4993 11.7143C14.2377 11.9893 15.0049 12.1801 15.7863 12.2829C16.1816 12.3386 16.5427 12.5373 16.8008 12.8414C17.0589 13.1454 17.196 13.5335 17.1861 13.9319Z" stroke="#F7941E" stroke-width="2" stroke-linecap="round" stroke-linejoin="round"/>
</svg>
