<svg width="149" height="149" viewBox="0 0 149 149" fill="none" xmlns="http://www.w3.org/2000/svg">
<path d="M74.5 12.4166C57.4271 12.4166 43.4583 26.3854 43.4583 43.4583V55.875H55.875V43.4583C55.875 33.2145 64.2563 24.8333 74.5 24.8333C84.7438 24.8333 93.125 33.2145 93.125 43.4583V55.875H105.542V43.4583C105.542 26.3854 91.5729 12.4166 74.5 12.4166Z" fill="#424242" fill-opacity="0.8"/>
<path d="M111.75 136.583H37.25C30.4208 136.583 24.8333 130.996 24.8333 124.167V68.2917C24.8333 61.4625 30.4208 55.875 37.25 55.875H111.75C118.579 55.875 124.167 61.4625 124.167 68.2917V124.167C124.167 130.996 118.579 136.583 111.75 136.583Z" fill="#F7941E"/>
<path d="M74.5 105.542C79.6432 105.542 83.8125 101.372 83.8125 96.2291C83.8125 91.086 79.6432 86.9166 74.5 86.9166C69.3568 86.9166 65.1875 91.086 65.1875 96.2291C65.1875 101.372 69.3568 105.542 74.5 105.542Z" fill="#C76E00" fill-opacity="0.8"/>
</svg>
