<svg width="32" height="32" viewBox="0 0 32 32" fill="none" xmlns="http://www.w3.org/2000/svg">
<g clip-path="url(#clip0_9_106)">
<path d="M20.9825 24.812L22.2005 22.0301C22.8434 20.5536 23.0315 18.9189 22.7408 17.335C22.4501 15.7511 21.6937 14.2898 20.5684 13.1378L18.3759 18.1454L17.4486 17.7393L20.6967 10.3208L16.9875 8.69673L13.7393 16.1153L12.812 15.7093L15.0045 10.7017C13.3948 10.6562 11.808 11.0916 10.4469 11.9523C9.08584 12.813 8.01228 14.06 7.3634 15.5338L6.14536 18.3158L4.29072 17.5038L3.47869 19.3584L22.0251 27.4787L22.8371 25.624L20.9825 24.812Z" fill="#F7941E"/>
</g>
<defs>
<clipPath id="clip0_9_106">
<rect width="24" height="24" fill="white" transform="translate(9.74435) scale(1.01231) rotate(23.6456)"/>
</clipPath>
</defs>
</svg>
