<svg width="16" height="16" viewBox="0 0 16 16" fill="none" xmlns="http://www.w3.org/2000/svg">
<path d="M10.707 1.63599C10.8945 1.82351 10.9998 2.07782 10.9998 2.34299C10.9998 2.60815 10.8945 2.86246 10.707 3.04999L5.75705 7.99999L10.707 12.95C10.8892 13.1386 10.99 13.3912 10.9877 13.6534C10.9854 13.9156 10.8803 14.1664 10.6949 14.3518C10.5095 14.5372 10.2586 14.6424 9.99645 14.6447C9.73425 14.6469 9.48165 14.5461 9.29305 14.364L3.63605 8.70699C3.44858 8.51946 3.34326 8.26515 3.34326 7.99999C3.34326 7.73482 3.44858 7.48052 3.63605 7.29299L9.29305 1.63599C9.48058 1.44852 9.73488 1.3432 10 1.3432C10.2652 1.3432 10.5195 1.44852 10.707 1.63599Z" fill="#1A1A1A"/>
</svg>
