<svg width="24" height="24" viewBox="0 0 24 24" fill="none" xmlns="http://www.w3.org/2000/svg">
<path fill-rule="evenodd" clip-rule="evenodd" d="M7.25015 6.63099V5.46099C7.25029 5.04201 7.40074 4.63699 7.67416 4.31953C7.94758 4.00206 8.32582 3.79323 8.74015 3.73099L9.96015 3.54799C11.3126 3.34509 12.6877 3.34509 14.0402 3.54799L15.2602 3.73099C15.6745 3.79323 16.0527 4.00206 16.3261 4.31953C16.5996 4.63699 16.75 5.04201 16.7502 5.46099V6.63099L18.4642 6.76899C19.1019 6.8205 19.7039 7.08435 20.1739 7.51835C20.644 7.95234 20.955 8.53142 21.0571 9.16299C21.5224 12.0356 21.5224 14.9644 21.0571 17.837C20.955 18.4686 20.644 19.0476 20.1739 19.4816C19.7039 19.9156 19.1019 20.1795 18.4642 20.231L16.5921 20.381C13.5358 20.6277 10.4645 20.6277 7.40815 20.381L5.53615 20.231C4.89845 20.1795 4.29644 19.9156 3.82637 19.4816C3.3563 19.0476 3.04532 18.4686 2.94315 17.837C2.47793 14.9644 2.47793 12.0356 2.94315 9.16299C3.04552 8.5316 3.35659 7.95275 3.82664 7.51896C4.29669 7.08516 4.89859 6.82145 5.53615 6.76999L7.25015 6.63099ZM10.1832 5.03099C11.3877 4.85031 12.6126 4.85031 13.8172 5.03099L15.0372 5.21399C15.0963 5.22284 15.1504 5.25264 15.1895 5.29797C15.2286 5.34329 15.2501 5.40114 15.2502 5.46099V6.52599C13.0852 6.40252 10.9151 6.40252 8.75015 6.52599V5.45999C8.75021 5.40014 8.77174 5.34229 8.81082 5.29697C8.84991 5.25164 8.90396 5.22184 8.96315 5.21299L10.1832 5.03099ZM7.52915 8.11299C10.5052 7.87299 13.4952 7.87299 16.4712 8.11299L18.3432 8.26499C18.6465 8.28926 18.933 8.41457 19.1567 8.62089C19.3804 8.8272 19.5284 9.10258 19.5772 9.40299C19.6392 9.78799 19.6922 10.173 19.7372 10.561C17.3301 11.746 14.6831 12.3623 12.0002 12.3623C9.31724 12.3623 6.67018 11.746 4.26315 10.561C4.30715 10.174 4.36115 9.78799 4.42315 9.40299C4.47186 9.10258 4.61991 8.8272 4.84363 8.62089C5.06735 8.41457 5.3538 8.28926 5.65715 8.26499L7.52915 8.11299ZM4.12915 12.157C6.601 13.2808 9.28483 13.8622 12.0002 13.8622C14.7155 13.8622 17.3993 13.2808 19.8712 12.157C19.9667 13.9756 19.8682 15.7992 19.5772 17.597C19.5286 17.8976 19.3807 18.1732 19.1569 18.3797C18.9332 18.5862 18.6467 18.7117 18.3432 18.736L16.4712 18.886C13.4952 19.126 10.5052 19.126 7.52915 18.886L5.65715 18.736C5.35365 18.7117 5.06709 18.5862 4.84336 18.3797C4.61962 18.1732 4.47165 17.8976 4.42315 17.597C4.13215 15.797 4.03315 13.973 4.12915 12.157Z" fill="#FFFAFA"/>
</svg>
