<svg width="14" height="14" viewBox="0 0 14 14" fill="none" xmlns="http://www.w3.org/2000/svg">
<path d="M6.51724 0C6.30118 0 6.09397 0.0921874 5.94119 0.256282C5.78842 0.420376 5.70259 0.642936 5.70259 0.875V6.125H0.814655C0.598595 6.125 0.391385 6.21719 0.238607 6.38128C0.0858297 6.54538 0 6.76794 0 7C0 7.23206 0.0858297 7.45462 0.238607 7.61872C0.391385 7.78281 0.598595 7.875 0.814655 7.875H5.70259V13.125C5.70259 13.3571 5.78842 13.5796 5.94119 13.7437C6.09397 13.9078 6.30118 14 6.51724 14C6.7333 14 6.94051 13.9078 7.09329 13.7437C7.24607 13.5796 7.3319 13.3571 7.3319 13.125V7.875H12.2198C12.4359 7.875 12.6431 7.78281 12.7959 7.61872C12.9487 7.45462 13.0345 7.23206 13.0345 7C13.0345 6.76794 12.9487 6.54538 12.7959 6.38128C12.6431 6.21719 12.4359 6.125 12.2198 6.125H7.3319V0.875C7.3319 0.642936 7.24607 0.420376 7.09329 0.256282C6.94051 0.0921874 6.7333 0 6.51724 0Z" fill="#FFFAFA"/>
</svg>
