<svg width="33" height="33" viewBox="0 0 33 33" fill="none" xmlns="http://www.w3.org/2000/svg">
<path d="M8.25 9.625H15.125C15.4897 9.625 15.8394 9.76987 16.0973 10.0277C16.3551 10.2856 16.5 10.6353 16.5 11C16.5 11.3647 16.3551 11.7144 16.0973 11.9723C15.8394 12.2301 15.4897 12.375 15.125 12.375H8.25C7.88533 12.375 7.53559 12.2301 7.27773 11.9723C7.01987 11.7144 6.875 11.3647 6.875 11C6.875 10.6353 7.01987 10.2856 7.27773 10.0277C7.53559 9.76987 7.88533 9.625 8.25 9.625ZM17.875 20.625H24.75C25.1147 20.625 25.4644 20.7699 25.7223 21.0277C25.9801 21.2856 26.125 21.6353 26.125 22C26.125 22.3647 25.9801 22.7144 25.7223 22.9723C25.4644 23.2301 25.1147 23.375 24.75 23.375H17.875C17.5103 23.375 17.1606 23.2301 16.9027 22.9723C16.6449 22.7144 16.5 22.3647 16.5 22C16.5 21.6353 16.6449 21.2856 16.9027 21.0277C17.1606 20.7699 17.5103 20.625 17.875 20.625ZM8.25 15.125H24.75C25.1147 15.125 25.4644 15.2699 25.7223 15.5277C25.9801 15.7856 26.125 16.1353 26.125 16.5C26.125 16.8647 25.9801 17.2144 25.7223 17.4723C25.4644 17.7301 25.1147 17.875 24.75 17.875H8.25C7.88533 17.875 7.53559 17.7301 7.27773 17.4723C7.01987 17.2144 6.875 16.8647 6.875 16.5C6.875 16.1353 7.01987 15.7856 7.27773 15.5277C7.53559 15.2699 7.88533 15.125 8.25 15.125Z" fill="#3A332C"/>
</svg>
