<svg width="36" height="36" viewBox="0 0 36 36" fill="none" xmlns="http://www.w3.org/2000/svg">
<path d="M9.37246 2.34912L5.47645 3.32225L2.43262 10.4273L4.77332 11.9883L6.7041 8.12811L7.90293 8.47264L6.84332 19.0265H17.2404L17.8873 12.8461L17.9506 12.2765H18.267L17.8873 8.47264L19.0896 8.12811L21.0162 11.9883L23.3576 10.4273L20.3131 3.32225L16.4178 2.34912C16.0311 2.62123 15.56 2.78576 15.0467 2.90811C14.3857 3.0635 13.6404 3.13592 12.8951 3.13592C12.1498 3.13592 11.4045 3.0635 10.7436 2.90811C10.2303 2.78576 9.75918 2.62193 9.37246 2.34912ZM19.0896 13.5422L18.9842 14.5265H31.5561L31.4506 13.5422H19.0896ZM18.8506 15.7922L16.9732 33.6515H21.3818L24.6514 18.4008H25.8889L29.1584 33.6515H33.567L31.6896 15.7922H18.8506Z" fill="#FFFAFA"/>
</svg>
