<svg width="30" height="31" viewBox="0 0 30 31" fill="none" xmlns="http://www.w3.org/2000/svg">
<g filter="url(#filter0_d_13_225)">
<path d="M14.25 18C14.25 18.1989 14.329 18.3897 14.4697 18.5303C14.6103 18.671 14.8011 18.75 15 18.75C15.1989 18.75 15.3897 18.671 15.5303 18.5303C15.671 18.3897 15.75 18.1989 15.75 18V15C15.75 14.8011 15.671 14.6103 15.5303 14.4697C15.3897 14.329 15.1989 14.25 15 14.25C14.8011 14.25 14.6103 14.329 14.4697 14.4697C14.329 14.6103 14.25 14.8011 14.25 15V18Z" fill="#CCCCCC"/>
<path fill-rule="evenodd" clip-rule="evenodd" d="M15 1.25C14.275 1.25 13.613 1.45 12.89 1.787C12.188 2.114 11.378 2.597 10.362 3.202L8.90601 4.069C7.78701 4.736 6.89601 5.267 6.22001 5.775C5.52301 6.3 5.00001 6.84 4.66001 7.551C4.31801 8.262 4.22601 9.007 4.25501 9.876C4.28401 10.717 4.43101 11.74 4.61501 13.022L4.90801 15.054C5.14501 16.704 5.33401 18.013 5.61501 19.032C5.90501 20.082 6.31701 20.917 7.06001 21.556C7.80201 22.196 8.69001 22.481 9.77601 22.618C10.832 22.75 12.163 22.75 13.842 22.75H16.158C17.838 22.75 19.168 22.75 20.224 22.618C21.31 22.481 22.198 22.196 22.94 21.557C23.683 20.917 24.095 20.083 24.385 19.032C24.666 18.012 24.855 16.704 25.092 15.054L25.384 13.022C25.569 11.74 25.716 10.717 25.744 9.876C25.774 9.006 25.682 8.262 25.341 7.551C25 6.84 24.477 6.3 23.78 5.775C23.105 5.267 22.213 4.736 21.094 4.069L19.638 3.202C18.622 2.597 17.812 2.114 17.111 1.787C16.387 1.449 15.725 1.25 15 1.25ZM11.096 4.511C12.153 3.881 12.899 3.438 13.524 3.146C14.133 2.862 14.571 2.75 15 2.75C15.43 2.75 15.867 2.862 16.476 3.146C17.101 3.438 17.846 3.881 18.904 4.511L20.289 5.336C21.454 6.03 22.275 6.52 22.879 6.974C23.466 7.417 23.789 7.783 23.989 8.199C24.188 8.615 24.271 9.093 24.246 9.825C24.22 10.575 24.086 11.516 23.894 12.851L23.614 14.788C23.368 16.502 23.192 17.716 22.939 18.633C22.692 19.529 22.394 20.048 21.962 20.42C21.529 20.793 20.968 21.013 20.037 21.13C19.086 21.249 17.849 21.25 16.107 21.25H13.894C12.151 21.25 10.914 21.249 9.96301 21.13C9.03301 21.013 8.47101 20.793 8.03801 20.42C7.60601 20.048 7.30801 19.529 7.06101 18.633C6.80801 17.716 6.63101 16.502 6.38501 14.788L6.10601 12.851C5.91401 11.516 5.78001 10.574 5.75401 9.825C5.72901 9.093 5.81201 8.615 6.01201 8.199C6.21201 7.783 6.53301 7.417 7.12201 6.974C7.72501 6.52 8.54601 6.03 9.71101 5.336L11.096 4.511Z" fill="#CCCCCC"/>
</g>
<defs>
<filter id="filter0_d_13_225" x="-1" y="0" width="32" height="32" filterUnits="userSpaceOnUse" color-interpolation-filters="sRGB">
<feFlood flood-opacity="0" result="BackgroundImageFix"/>
<feColorMatrix in="SourceAlpha" type="matrix" values="0 0 0 0 0 0 0 0 0 0 0 0 0 0 0 0 0 0 127 0" result="hardAlpha"/>
<feOffset dy="4"/>
<feGaussianBlur stdDeviation="2"/>
<feComposite in2="hardAlpha" operator="out"/>
<feColorMatrix type="matrix" values="0 0 0 0 0 0 0 0 0 0 0 0 0 0 0 0 0 0 0.25 0"/>
<feBlend mode="normal" in2="BackgroundImageFix" result="effect1_dropShadow_13_225"/>
<feBlend mode="normal" in="SourceGraphic" in2="effect1_dropShadow_13_225" result="shape"/>
</filter>
</defs>
</svg>
