<svg width="19" height="19" viewBox="0 0 19 19" fill="none" xmlns="http://www.w3.org/2000/svg">
<circle cx="9.5" cy="9.5" r="9.5" fill="#F7941E"/>
<path d="M4.84934 7.52181C4.98637 7.38481 5.17222 7.30785 5.36599 7.30785C5.55976 7.30785 5.7456 7.38481 5.88264 7.52181L9.49995 11.1391L13.1173 7.52181C13.2551 7.38869 13.4397 7.31503 13.6313 7.3167C13.8229 7.31837 14.0062 7.39522 14.1417 7.53071C14.2772 7.6662 14.354 7.84949 14.3557 8.04109C14.3573 8.2327 14.2837 8.41729 14.1506 8.55512L10.0166 12.6891C9.87956 12.8261 9.69372 12.903 9.49995 12.903C9.30618 12.903 9.12034 12.8261 8.9833 12.6891L4.84934 8.55512C4.71234 8.41808 4.63538 8.23224 4.63538 8.03846C4.63538 7.84469 4.71234 7.65885 4.84934 7.52181Z" fill="#FAFAFA"/>
</svg>
